HIERARCHY
ROOT Hips
{
 OFFSET 0.000000 0.000000 0.000000
 CHANNELS 6 Xposition Yposition Zposition Yrotation Xrotation Zrotation
 JOINT Chest
 {
  OFFSET 0.000000 8.841881 -6.654894
  CHANNELS 3 Yrotation Xrotation Zrotation
  JOINT Chest2
  {
   OFFSET 0.000000 7.072353 0.028336
   CHANNELS 3 Yrotation Xrotation Zrotation
   JOINT Chest3
   {
    OFFSET 0.000000 10.125157 -0.014641
    CHANNELS 3 Yrotation Xrotation Zrotation
    JOINT Chest4
    {
     OFFSET 0.000000 10.441534 -0.016102
     CHANNELS 3 Yrotation Xrotation Zrotation
     JOINT Neck
     {
      OFFSET 0.000000 16.849355 0.013667
      CHANNELS 3 Yrotation Xrotation Zrotation
      JOINT Head
      {
       OFFSET 0.000000 10.107081 0.000000
       CHANNELS 3 Yrotation Xrotation Zrotation
       End Site
       {
        OFFSET 0.000000 15.162723 0.000000
       }
      }
     }
     JOINT RightCollar
     {
      OFFSET -2.775264 10.553866 0.006834
      CHANNELS 3 Yrotation Xrotation Zrotation
      JOINT RightShoulder
      {
       OFFSET -16.020521 0.000000 0.000000
       CHANNELS 3 Yrotation Xrotation Zrotation
       JOINT RightElbow
       {
        OFFSET -23.902096 0.000000 0.000000
        CHANNELS 3 Yrotation Xrotation Zrotation
        JOINT RightWrist
        {
         OFFSET -23.631001 0.000000 -0.000566
         CHANNELS 3 Yrotation Xrotation Zrotation
         End Site
         {
          OFFSET -18.828190 0.690323 0.103033
         }
        }
       }
      }
     }
     JOINT LeftCollar
     {
      OFFSET 2.775264 10.553866 0.006834
      CHANNELS 3 Yrotation Xrotation Zrotation
      JOINT LeftShoulder
      {
       OFFSET 16.020521 0.000000 0.000000
       CHANNELS 3 Yrotation Xrotation Zrotation
       JOINT LeftElbow
       {
        OFFSET 23.902096 0.000000 0.000000
        CHANNELS 3 Yrotation Xrotation Zrotation
        JOINT LeftWrist
        {
         OFFSET 23.631001 0.000000 -0.000566
         CHANNELS 3 Yrotation Xrotation Zrotation
         End Site
         {
          OFFSET 18.828190 0.690323 0.103033
         }
        }
       }
      }
     }
    }
   }
  }
 }
 JOINT RightHip
 {
  OFFSET -9.646452 0.046004 -0.007286
  CHANNELS 3 Yrotation Xrotation Zrotation
  JOINT RightKnee
  {
   OFFSET 0.000000 -48.923989 0.009793
   CHANNELS 3 Yrotation Xrotation Zrotation
   JOINT RightAnkle
   {
    OFFSET 0.000000 -37.831989 0.111451
    CHANNELS 3 Yrotation Xrotation Zrotation
    JOINT RightToe
    {
     OFFSET 0.000000 -8.084683 17.519885
     CHANNELS 3 Yrotation Xrotation Zrotation
     End Site
     {
      OFFSET 0.000000 -1.047441 5.170765
     }
    }
   }
  }
 }
 JOINT LeftHip
 {
  OFFSET 9.646452 0.044016 -0.006971
  CHANNELS 3 Yrotation Xrotation Zrotation
  JOINT LeftKnee
  {
   OFFSET 0.000000 -48.923989 0.009793
   CHANNELS 3 Yrotation Xrotation Zrotation
   JOINT LeftAnkle
   {
    OFFSET 0.000000 -37.831989 0.111451
    CHANNELS 3 Yrotation Xrotation Zrotation
    JOINT LeftToe
    {
     OFFSET 0.000000 -8.084683 17.519885
     CHANNELS 3 Yrotation Xrotation Zrotation
     End Site
     {
      OFFSET 0.000000 -1.047441 5.170765
     }
    }
   }
  }
 }
}
MOTION
Frames: 14
Frame Time: 0.004167
11.090771 96.220817 14.913615 5.471016 11.062789 -0.348297 0.250562 0.950760 1.020706 0.016542 -13.069106 0.494562 0.014116 -0.124067 0.348679 0.021180 9.463875 0.100983 -1.959177 -1.576813 -0.467027 -3.629857 -2.940381 -0.824578 -1.898767 -3.734336 6.750914 -13.564464 -7.286813 68.408820 3.521878 -4.874115 0.127705 -3.365365 3.174257 1.656814 -1.424694 -5.733593 -7.425445 10.913751 -3.268022 -67.996184 -1.496216 -5.856576 -2.600111 1.643165 8.401493 -1.631002 -5.438732 -3.321932 -0.928195 -0.732427 -1.216005 0.200467 -9.372348 -3.839807 3.973248 -0.000000 0.000000 -0.000000 3.725468 -5.368563 2.736334 0.841711 2.131081 -0.478595 3.574847 -6.703815 -1.425030 -0.000000 -0.000000 -0.000000
11.098104 96.220717 14.903768 5.467978 11.047600 -0.353740 0.250344 0.952905 1.017005 0.016809 -13.068090 0.492754 0.014287 -0.123356 0.347454 0.021168 9.464078 0.100628 -1.955191 -1.574232 -0.464790 -3.622512 -2.935505 -0.820581 -1.897916 -3.718886 6.755321 -13.565552 -7.290834 68.408720 3.520815 -4.872716 0.127515 -3.366448 3.175023 1.660167 -1.426032 -5.717519 -7.405752 10.918467 -3.274456 -68.010758 -1.490056 -5.863438 -2.596847 1.645480 8.402070 -1.627859 -5.427454 -3.314258 -0.923098 -0.748504 -1.209864 0.184958 -9.366998 -3.848484 3.988555 -0.000000 0.000000 0.000000 3.719662 -5.358219 2.740355 0.854518 2.132025 -0.488273 3.573333 -6.707038 -1.411770 0.000000 -0.000000 0.000000
11.105503 96.220654 14.893804 5.464804 11.032221 -0.359325 0.250114 0.955145 1.013324 0.017068 -13.067030 0.490956 0.014453 -0.122613 0.346234 0.021155 9.464290 0.100274 -1.951130 -1.571754 -0.462534 -3.615027 -2.930821 -0.816546 -1.896984 -3.703293 6.759673 -13.566518 -7.295013 68.408666 3.519899 -4.871204 0.127487 -3.367497 3.175828 1.663713 -1.427396 -5.701284 -7.385842 10.923320 -3.280954 -68.025448 -1.483653 -5.869917 -2.593863 1.647700 8.402265 -1.624997 -5.416031 -3.306490 -0.917792 -0.764840 -1.203602 0.169116 -9.361429 -3.857454 4.004122 -0.000000 0.000000 -0.000000 3.713727 -5.347750 2.744538 0.867667 2.133009 -0.498154 3.571783 -6.710272 -1.398275 -0.000000 0.000000 0.000000
11.112948 96.220617 14.883758 5.461536 11.016707 -0.365010 0.249876 0.957450 1.009658 0.017322 -13.065937 0.489165 0.014615 -0.121848 0.345019 0.021142 9.464509 0.099922 -1.947017 -1.569350 -0.460264 -3.607445 -2.926272 -0.812485 -1.895997 -3.687601 6.763985 -13.567400 -7.299303 68.408643 3.519086 -4.869611 0.127573 -3.368522 3.176661 1.667394 -1.428774 -5.684935 -7.365781 10.928270 -3.287496 -68.040219 -1.477080 -5.876127 -2.591074 1.649852 8.402191 -1.622332 -5.404508 -3.298657 -0.912339 -0.781356 -1.197257 0.153040 -9.355709 -3.866630 4.019872 -0.000000 -0.000000 0.000000 3.707702 -5.337192 2.748833 0.881055 2.134021 -0.508178 3.570209 -6.713515 -1.384615 0.000000 -0.000000 0.000000
11.120420 96.220595 14.873665 5.458216 11.001116 -0.370751 0.249635 0.959794 1.006001 0.017573 -13.064827 0.487378 0.014776 -0.121071 0.343807 0.021127 9.464731 0.099571 -1.942874 -1.566987 -0.457986 -3.599807 -2.921801 -0.808407 -1.894975 -3.671851 6.768276 -13.568233 -7.303656 68.408639 3.518332 -4.867973 0.127723 -3.369535 3.177510 1.671152 -1.430160 -5.668522 -7.345635 10.933276 -3.294062 -68.055037 -1.470412 -5.882185 -2.588398 1.651964 8.401964 -1.619779 -5.392928 -3.290787 -0.906799 -0.797976 -1.190865 0.136829 -9.349905 -3.875924 4.035726 0.000000 -0.000000 -0.000000 3.701626 -5.326583 2.753191 0.894580 2.135050 -0.518282 3.568619 -6.716762 -1.370860 -0.000000 0.000000 -0.000000
11.127897 96.220576 14.863561 5.454883 10.985506 -0.376506 0.249394 0.962147 1.002346 0.017824 -13.063712 0.485593 0.014936 -0.120290 0.342595 0.021113 9.464954 0.099220 -1.938723 -1.564636 -0.455705 -3.592155 -2.917350 -0.804324 -1.893942 -3.656088 6.772561 -13.569055 -7.308024 68.408640 3.517594 -4.866324 0.127889 -3.370544 3.178362 1.674930 -1.431543 -5.652092 -7.325468 10.938298 -3.300634 -68.069867 -1.463719 -5.888205 -2.585749 1.654067 8.401699 -1.617254 -5.381333 -3.282909 -0.901234 -0.814622 -1.184465 0.120582 -9.344086 -3.885249 4.051608 -0.000000 0.000000 -0.000000 3.695538 -5.315960 2.757562 0.908140 2.136083 -0.528406 3.567024 -6.720011 -1.357082 0.000000 0.000000 0.000000
11.135362 96.220551 14.853480 5.451579 10.969934 -0.382230 0.249156 0.964481 0.998686 0.018078 -13.062607 0.483805 0.015098 -0.119516 0.341382 0.021099 9.465176 0.098868 -1.934587 -1.562265 -0.453427 -3.584531 -2.912864 -0.800245 -1.892921 -3.640353 6.776856 -13.569902 -7.312361 68.408631 3.516826 -4.864697 0.128023 -3.371559 3.179208 1.678669 -1.432915 -5.635692 -7.305347 10.943294 -3.307192 -68.084675 -1.457077 -5.894304 -2.583044 1.656189 8.401509 -1.614673 -5.369768 -3.275052 -0.895706 -0.831215 -1.178092 0.104397 -9.338316 -3.894515 4.067438 -0.000000 -0.000000 0.000000 3.689477 -5.305361 2.761897 0.921632 2.137109 -0.538487 3.565433 -6.723258 -1.343351 -0.000000 -0.000000 0.000000
11.142794 96.220506 14.843457 5.448346 10.954457 -0.387882 0.248925 0.966767 0.995015 0.018335 -13.061524 0.482011 0.015263 -0.118758 0.340165 0.021086 9.465393 0.098516 -1.930488 -1.559844 -0.451157 -3.576975 -2.908284 -0.796183 -1.891934 -3.624689 6.781179 -13.570811 -7.316618 68.408601 3.515984 -4.863127 0.128076 -3.372591 3.180033 1.682312 -1.434266 -5.619370 -7.285336 10.948223 -3.313716 -68.099426 -1.450558 -5.900595 -2.580200 1.658358 8.401510 -1.611950 -5.358276 -3.267244 -0.890276 -0.847679 -1.171783 0.088374 -9.332665 -3.903636 4.083140 -0.000000 -0.000000 -0.000000 3.683482 -5.294823 2.766146 0.934955 2.138114 -0.548465 3.563856 -6.726501 -1.329738 0.000000 -0.000000 0.000000
11.150173 96.220432 14.833528 5.445224 10.939133 -0.393417 0.248705 0.968977 0.991327 0.018600 -13.060477 0.480210 0.015433 -0.118025 0.338944 0.021074 9.465602 0.098162 -1.926449 -1.557341 -0.448901 -3.569531 -2.903554 -0.792146 -1.891004 -3.609140 6.785545 -13.571818 -7.320749 68.408534 3.515026 -4.861648 0.128000 -3.373649 3.180828 1.685800 -1.435589 -5.603176 -7.265501 10.953047 -3.320186 -68.114085 -1.444235 -5.907195 -2.577132 1.660604 8.401817 -1.609002 -5.346900 -3.259514 -0.885005 -0.863935 -1.165576 0.072612 -9.327197 -3.912524 4.098636 -0.000000 0.000000 -0.000000 3.677593 -5.284383 2.770260 0.948007 2.139087 -0.558277 3.562303 -6.729737 -1.316314 -0.000000 0.000000 0.000000
11.157480 96.220317 14.823729 5.442254 10.924019 -0.398793 0.248499 0.971082 0.987616 0.018875 -13.059480 0.478396 0.015609 -0.117327 0.337717 0.021064 9.465802 0.097806 -1.922492 -1.554726 -0.446665 -3.562239 -2.898617 -0.788147 -1.890154 -3.593749 6.789971 -13.572960 -7.324706 68.408417 3.513906 -4.860293 0.127745 -3.374743 3.181579 1.689076 -1.436875 -5.587156 -7.245908 10.957722 -3.326584 -68.128618 -1.438182 -5.914218 -2.573758 1.662955 8.402543 -1.605743 -5.335684 -3.251890 -0.879956 -0.879906 -1.159508 0.057210 -9.321980 -3.921090 4.113847 -0.000000 -0.000000 0.000000 3.671848 -5.274080 2.774190 0.960684 2.140016 -0.567864 3.560784 -6.732961 -1.303149 0.000000 0.000000 0.000000
11.164696 96.220149 14.814093 5.439477 10.909173 -0.403967 0.248312 0.973055 0.983874 0.019161 -13.058546 0.476568 0.015794 -0.116673 0.336480 0.021055 9.465989 0.097448 -1.918639 -1.551968 -0.444453 -3.555140 -2.893416 -0.784195 -1.889407 -3.578557 6.794474 -13.574273 -7.328441 68.408237 3.512580 -4.859097 0.127264 -3.375884 3.182276 1.692082 -1.438115 -5.571358 -7.226621 10.962209 -3.332889 -68.142989 -1.432471 -5.921781 -2.569992 1.665440 8.403804 -1.602090 -5.324670 -3.244401 -0.875190 -0.895515 -1.153614 0.042266 -9.317081 -3.929247 4.128695 -0.000000 0.000000 -0.000000 3.666286 -5.263951 2.777885 0.972885 2.140889 -0.577163 3.559308 -6.736172 -1.290315 0.000000 0.000000 0.000000
11.171799 96.219919 14.804657 5.436935 10.894651 -0.408896 0.248146 0.974866 0.980097 0.019462 -13.057690 0.474723 0.015988 -0.116073 0.335234 0.021049 9.466160 0.097087 -1.914913 -1.549036 -0.442272 -3.548277 -2.887894 -0.780302 -1.888786 -3.563609 6.799071 -13.575795 -7.331908 68.407980 3.511004 -4.858094 0.126508 -3.377080 3.182906 1.694760 -1.439301 -5.555832 -7.207706 10.966468 -3.339082 -68.157165 -1.427178 -5.929998 -2.565752 1.668087 8.405714 -1.597956 -5.313902 -3.237074 -0.870769 -0.910683 -1.147932 0.027881 -9.312565 -3.936906 4.143104 -0.000000 0.000000 0.000000 3.660947 -5.254033 2.781298 0.984508 2.141693 -0.586114 3.557887 -6.739365 -1.277881 -0.000000 0.000000 -0.000000
11.178771 96.219613 14.795455 5.434667 10.880512 -0.413536 0.248005 0.976487 0.976277 0.019780 -13.056923 0.472856 0.016194 -0.115536 0.333975 0.021045 9.466314 0.096722 -1.911336 -1.545899 -0.440128 -3.541691 -2.881993 -0.776478 -1.888314 -3.548946 6.803777 -13.577561 -7.335058 68.407632 3.509134 -4.857318 0.125428 -3.378343 3.183459 1.697052 -1.440424 -5.540624 -7.189229 10.970456 -3.345144 -68.171110 -1.422375 -5.938985 -2.560953 1.670926 8.408387 -1.593258 -5.303424 -3.229940 -0.866754 -0.925333 -1.142498 0.014154 -9.308498 -3.943980 4.156994 -0.000000 -0.000000 0.000000 3.655870 -5.244365 2.784379 0.995450 2.142417 -0.594655 3.556529 -6.742538 -1.265919 -0.000000 -0.000000 -0.000000
11.185592 96.219222 14.786524 5.432714 10.866813 -0.417846 0.247893 0.977889 0.972409 0.020116 -13.056261 0.470965 0.016413 -0.115072 0.332703 0.021045 9.466447 0.096353 -1.907931 -1.542526 -0.438025 -3.535423 -2.875657 -0.772733 -1.888013 -3.534612 6.808609 -13.579608 -7.337844 68.407180 3.506926 -4.856803 0.123976 -3.379682 3.183921 1.698900 -1.441476 -5.525784 -7.171253 10.974134 -3.351055 -68.184789 -1.418136 -5.948857 -2.555511 1.673984 8.411939 -1.587911 -5.293278 -3.223025 -0.863207 -0.939387 -1.137348 0.001184 -9.304948 -3.950380 4.170287 0.000000 -0.000000 -0.000000 3.651092 -5.234983 2.787078 1.005610 2.143048 -0.602726 3.555245 -6.745687 -1.254500 -0.000000 0.000000 0.000000
